<svg width="190" height="64" viewBox="0 0 190 64" fill="none" xmlns="http://www.w3.org/2000/svg">
    <path d="M27.7128 0L0 16L27.7128 32V0Z" fill="#F29100"/>
    <path d="M55.4256 16L27.7128 0V32L55.4256 16Z" fill="#F29100"/>
    <path d="M0 48L27.7128 64V32L0 48Z" fill="#FFEC00"/>
    <path d="M0 16V48L27.7128 32L0 16Z" fill="#FFEC00"/>
    <path d="M27.7128 64L55.4256 48L27.7128 32V64Z" fill="#1F7FD1"/>
    <path d="M84.6738 43.48C82.3271 43.48 80.2471 43.0107 78.4338 42.072C76.6204 41.112 75.2124 39.7573 74.2098 38.008C73.2071 36.2373 72.7058 34.1787 72.7058 31.832C72.7058 29.4853 73.2071 27.4373 74.2098 25.688C75.2124 23.9173 76.6204 22.552 78.4338 21.592C80.2471 20.632 82.3271 20.152 84.6738 20.152C87.7671 20.152 90.3484 20.888 92.4178 22.36V26.232C90.5618 24.6533 88.0978 23.864 85.0258 23.864C83.3831 23.864 81.9431 24.1947 80.7058 24.856C79.4684 25.496 78.5084 26.4133 77.8258 27.608C77.1431 28.8027 76.8018 30.2107 76.8018 31.832C76.8018 33.4533 77.1431 34.8613 77.8258 36.056C78.5298 37.2507 79.5004 38.1787 80.7378 38.84C81.9751 39.48 83.4044 39.8 85.0258 39.8C86.6044 39.8 88.0124 39.608 89.2498 39.224C90.4871 38.8187 91.6284 38.1787 92.6738 37.304V41.176C90.7111 42.712 88.0444 43.48 84.6738 43.48ZM101.081 43.48C99.0112 43.48 97.4645 42.9253 96.4405 41.816C95.4165 40.6853 94.9045 39.192 94.9045 37.336V27.64H98.9365V36.952C98.9365 39.192 99.9819 40.312 102.073 40.312C102.99 40.312 103.854 40.0987 104.665 39.672C105.475 39.224 106.158 38.5627 106.713 37.688V27.64H110.745V43H106.841V40.92C106.115 41.7947 105.251 42.4453 104.249 42.872C103.246 43.2773 102.19 43.48 101.081 43.48ZM124.58 43.48C123.278 43.48 122.158 43.3093 121.22 42.968C120.281 42.6053 119.374 42.0187 118.5 41.208V43H114.596V19.352H118.628V29.144C119.353 28.4827 120.228 27.992 121.252 27.672C122.297 27.3307 123.406 27.16 124.58 27.16C126.137 27.16 127.524 27.512 128.74 28.216C129.977 28.8987 130.937 29.8587 131.62 31.096C132.324 32.3333 132.676 33.752 132.676 35.352C132.676 36.9733 132.324 38.4027 131.62 39.64C130.937 40.856 129.977 41.8053 128.74 42.488C127.524 43.1493 126.137 43.48 124.58 43.48ZM123.588 40.312C125.038 40.312 126.233 39.8533 127.172 38.936C128.11 38.0187 128.58 36.824 128.58 35.352C128.58 33.88 128.11 32.6747 127.172 31.736C126.233 30.7973 125.038 30.328 123.588 30.328C122.436 30.328 121.401 30.648 120.484 31.288C119.588 31.9067 118.969 32.7387 118.628 33.784V36.888C118.99 37.9333 119.62 38.7653 120.516 39.384C121.412 40.0027 122.436 40.312 123.588 40.312ZM135.877 27.64H139.781V30.104C140.4 29.272 141.274 28.6533 142.405 28.248C143.557 27.8427 144.869 27.64 146.341 27.64V30.712C144.784 30.712 143.429 30.9573 142.277 31.448C141.146 31.9173 140.357 32.664 139.909 33.688V43H135.877V27.64ZM151.18 24.952C150.54 24.952 149.996 24.7387 149.548 24.312C149.122 23.8853 148.908 23.352 148.908 22.712C148.908 22.072 149.122 21.5387 149.548 21.112C149.996 20.664 150.54 20.44 151.18 20.44C151.82 20.44 152.364 20.664 152.812 21.112C153.26 21.5387 153.484 22.072 153.484 22.712C153.484 23.352 153.26 23.8853 152.812 24.312C152.364 24.7387 151.82 24.952 151.18 24.952ZM149.132 27.64H153.228V43H149.132V27.64ZM165.667 43.48C163.875 43.48 162.296 43.16 160.931 42.52C159.587 41.88 158.541 40.952 157.795 39.736C157.048 38.52 156.675 37.0587 156.675 35.352C156.675 33.6453 157.048 32.184 157.795 30.968C158.563 29.7307 159.619 28.792 160.963 28.152C162.328 27.4907 163.917 27.16 165.731 27.16C168.12 27.16 170.029 27.6293 171.459 28.568V31.8C170.072 30.8187 168.301 30.328 166.147 30.328C164.504 30.328 163.192 30.744 162.211 31.576C161.251 32.3867 160.771 33.6453 160.771 35.352C160.771 37.0373 161.251 38.2853 162.211 39.096C163.192 39.9067 164.483 40.312 166.083 40.312C168.237 40.312 170.093 39.8 171.651 38.776V41.976C170.883 42.488 170.008 42.8613 169.027 43.096C168.067 43.352 166.947 43.48 165.667 43.48ZM180.674 43.48C179.564 43.48 178.38 43.352 177.122 43.096C175.863 42.84 174.882 42.488 174.178 42.04V38.616C175.01 39.128 176.002 39.544 177.154 39.864C178.306 40.1627 179.394 40.312 180.418 40.312C181.442 40.312 182.188 40.2267 182.658 40.056C183.127 39.864 183.362 39.5227 183.362 39.032C183.362 38.648 183.234 38.3387 182.978 38.104C182.743 37.848 182.348 37.624 181.794 37.432C181.26 37.2187 180.428 36.9627 179.298 36.664C178.018 36.3013 177.004 35.928 176.258 35.544C175.532 35.16 174.978 34.68 174.594 34.104C174.231 33.5067 174.05 32.7387 174.05 31.8C174.05 30.264 174.658 29.112 175.874 28.344C177.09 27.5547 178.732 27.16 180.802 27.16C181.868 27.16 182.924 27.2667 183.97 27.48C185.036 27.672 185.868 27.9493 186.466 28.312V31.608C185.826 31.224 185.047 30.9147 184.13 30.68C183.212 30.4453 182.274 30.328 181.314 30.328C180.268 30.328 179.479 30.4347 178.946 30.648C178.412 30.84 178.146 31.224 178.146 31.8C178.146 32.184 178.284 32.4933 178.562 32.728C178.86 32.9413 179.244 33.1333 179.714 33.304C180.183 33.4533 181.036 33.688 182.274 34.008C183.596 34.3707 184.631 34.7653 185.378 35.192C186.124 35.6187 186.658 36.1307 186.978 36.728C187.298 37.3253 187.458 38.072 187.458 38.968C187.458 40.3333 186.871 41.432 185.698 42.264C184.546 43.0747 182.871 43.48 180.674 43.48Z" fill="#767676"/>
</svg>
