<svg width="36" height="36" viewBox="0 0 36 36" fill="none" xmlns="http://www.w3.org/2000/svg">
    <path d="M9 7.875C9 7.57663 9.11853 7.29048 9.32951 7.07951C9.54048 6.86853 9.82663 6.75 10.125 6.75H21.375C21.6734 6.75 21.9595 6.86853 22.1705 7.07951C22.3815 7.29048 22.5 7.57663 22.5 7.875C22.5 8.17337 22.3815 8.45952 22.1705 8.67049C21.9595 8.88147 21.6734 9 21.375 9H10.125C9.82663 9 9.54048 8.88147 9.32951 8.67049C9.11853 8.45952 9 8.17337 9 7.875ZM9 12.375C9 12.0766 9.11853 11.7905 9.32951 11.5795C9.54048 11.3685 9.82663 11.25 10.125 11.25H25.875C26.1734 11.25 26.4595 11.3685 26.6705 11.5795C26.8815 11.7905 27 12.0766 27 12.375V30.375C27 30.6734 26.8815 30.9595 26.6705 31.1705C26.4595 31.3815 26.1734 31.5 25.875 31.5H10.125C9.82663 31.5 9.54048 31.3815 9.32951 31.1705C9.11853 30.9595 9 30.6734 9 30.375V12.375Z" fill="white"/>
    <path d="M4.5 4.5C4.5 3.30653 4.97411 2.16193 5.81802 1.31802C6.66193 0.474106 7.80653 0 9 0L27 0C28.1935 0 29.3381 0.474106 30.182 1.31802C31.0259 2.16193 31.5 3.30653 31.5 4.5V31.5C31.5 32.6935 31.0259 33.8381 30.182 34.682C29.3381 35.5259 28.1935 36 27 36H9C7.80653 36 6.66193 35.5259 5.81802 34.682C4.97411 33.8381 4.5 32.6935 4.5 31.5V4.5ZM27 2.25H9C8.40326 2.25 7.83097 2.48705 7.40901 2.90901C6.98705 3.33097 6.75 3.90326 6.75 4.5V31.5C6.75 32.0967 6.98705 32.669 7.40901 33.091C7.83097 33.5129 8.40326 33.75 9 33.75H27C27.5967 33.75 28.169 33.5129 28.591 33.091C29.0129 32.669 29.25 32.0967 29.25 31.5V4.5C29.25 3.90326 29.0129 3.33097 28.591 2.90901C28.169 2.48705 27.5967 2.25 27 2.25Z" fill="white"/>
</svg>
