<svg width="48" height="48" viewBox="0 0 48 48" fill="none" xmlns="http://www.w3.org/2000/svg">
<path d="M12 10.5C12 10.1022 12.158 9.72064 12.4393 9.43934C12.7206 9.15804 13.1022 9 13.5 9H28.5C28.8978 9 29.2794 9.15804 29.5607 9.43934C29.842 9.72064 30 10.1022 30 10.5C30 10.8978 29.842 11.2794 29.5607 11.5607C29.2794 11.842 28.8978 12 28.5 12H13.5C13.1022 12 12.7206 11.842 12.4393 11.5607C12.158 11.2794 12 10.8978 12 10.5ZM12 16.5C12 16.1022 12.158 15.7206 12.4393 15.4393C12.7206 15.158 13.1022 15 13.5 15H34.5C34.8978 15 35.2794 15.158 35.5607 15.4393C35.842 15.7206 36 16.1022 36 16.5V40.5C36 40.8978 35.842 41.2794 35.5607 41.5607C35.2794 41.842 34.8978 42 34.5 42H13.5C13.1022 42 12.7206 41.842 12.4393 41.5607C12.158 41.2794 12 40.8978 12 40.5V16.5Z" fill="white"/>
<path d="M6 6C6 4.4087 6.63214 2.88258 7.75736 1.75736C8.88258 0.632141 10.4087 0 12 0L36 0C37.5913 0 39.1174 0.632141 40.2426 1.75736C41.3679 2.88258 42 4.4087 42 6V42C42 43.5913 41.3679 45.1174 40.2426 46.2426C39.1174 47.3679 37.5913 48 36 48H12C10.4087 48 8.88258 47.3679 7.75736 46.2426C6.63214 45.1174 6 43.5913 6 42V6ZM36 3H12C11.2044 3 10.4413 3.31607 9.87868 3.87868C9.31607 4.44129 9 5.20435 9 6V42C9 42.7957 9.31607 43.5587 9.87868 44.1213C10.4413 44.6839 11.2044 45 12 45H36C36.7956 45 37.5587 44.6839 38.1213 44.1213C38.6839 43.5587 39 42.7957 39 42V6C39 5.20435 38.6839 4.44129 38.1213 3.87868C37.5587 3.31607 36.7956 3 36 3Z" fill="white"/>
</svg>
