<svg width="48" height="48" viewBox="0 0 48 48" fill="none" xmlns="http://www.w3.org/2000/svg">
<g clip-path="url(#clip0_1030_2086)">
<path d="M20.997 7.8C23.5128 6.51554 26.3161 5.89843 29.1387 6.00777C31.9613 6.11712 34.7085 6.94924 37.1174 8.42448C39.5262 9.89971 41.516 11.9687 42.8962 14.4332C44.2764 16.8977 45.0008 19.6753 45 22.5C45 22.8978 45.158 23.2794 45.4393 23.5607C45.7206 23.842 46.1022 24 46.5 24C46.8978 24 47.2794 23.842 47.5607 23.5607C47.842 23.2794 48 22.8978 48 22.5C48 17.3283 45.9455 12.3684 42.2886 8.71142C38.6316 5.05446 33.6717 3 28.5 3C23.3283 3 18.3684 5.05446 14.7114 8.71142C11.0545 12.3684 9 17.3283 9 22.5C8.99946 24.7249 9.49384 26.922 10.4473 28.9322C11.4009 30.9424 12.7896 32.7153 14.5129 34.1224C16.2363 35.5296 18.2511 36.5358 20.4113 37.0681C22.5716 37.6003 24.8232 37.6454 27.003 37.2C24.4872 38.4845 21.6839 39.1016 18.8613 38.9922C16.0387 38.8829 13.2915 38.0508 10.8826 36.5755C8.47379 35.1003 6.484 33.0313 5.1038 30.5668C3.7236 28.1023 2.99921 25.3247 3 22.5C3 22.1022 2.84196 21.7206 2.56066 21.4393C2.27936 21.158 1.89782 21 1.5 21C1.10218 21 0.720644 21.158 0.43934 21.4393C0.158035 21.7206 0 22.1022 0 22.5C0 27.6717 2.05446 32.6316 5.71142 36.2886C9.36838 39.9455 14.3283 42 19.5 42C24.6717 42 29.6316 39.9455 33.2886 36.2886C36.9455 32.6316 39 27.6717 39 22.5C39.0005 20.2751 38.5062 18.078 37.5527 16.0678C36.5991 14.0576 35.2104 12.2847 33.4871 10.8776C31.7637 9.47041 29.7489 8.46423 27.5887 7.93194C25.4284 7.39965 23.1768 7.35458 20.997 7.8ZM30 22.5C30 24.0913 29.3679 25.6174 28.2426 26.7426C27.1174 27.8679 25.5913 28.5 24 28.5C22.4087 28.5 20.8826 27.8679 19.7574 26.7426C18.6321 25.6174 18 24.0913 18 22.5C18 20.9087 18.6321 19.3826 19.7574 18.2574C20.8826 17.1321 22.4087 16.5 24 16.5C25.5913 16.5 27.1174 17.1321 28.2426 18.2574C29.3679 19.3826 30 20.9087 30 22.5Z" fill="white"/>
</g>
<defs>
<clipPath id="clip0_1030_2086">
<rect width="48" height="48" fill="white"/>
</clipPath>
</defs>
</svg>
