<svg width="36" height="36" viewBox="0 0 36 36" fill="none" xmlns="http://www.w3.org/2000/svg">
    <g clip-path="url(#clip0_1030_2086)">
        <path d="M15.7478 5.85C17.6346 4.88665 19.7371 4.42382 21.854 4.50583C23.971 4.58784 26.0314 5.21193 27.838 6.31836C29.6447 7.42479 31.137 8.97649 32.1722 10.8249C33.2073 12.6733 33.7506 14.7565 33.75 16.875C33.75 17.1734 33.8685 17.4595 34.0795 17.6705C34.2905 17.8815 34.5766 18 34.875 18C35.1734 18 35.4595 17.8815 35.6705 17.6705C35.8815 17.4595 36 17.1734 36 16.875C36 12.9962 34.4592 9.27628 31.7164 6.53356C28.9737 3.79084 25.2538 2.25 21.375 2.25C17.4962 2.25 13.7763 3.79084 11.0336 6.53356C8.29084 9.27628 6.75 12.9962 6.75 16.875C6.74959 18.5436 7.12038 20.1915 7.83551 21.6991C8.55064 23.2068 9.59219 24.5365 10.8847 25.5918C12.1772 26.6472 13.6883 27.4018 15.3085 27.801C16.9287 28.2003 18.6174 28.2341 20.2523 27.9C18.3654 28.8633 16.2629 29.3262 14.146 29.2442C12.029 29.1622 9.96861 28.5381 8.16197 27.4316C6.35534 26.3252 4.863 24.7735 3.82785 22.9251C2.7927 21.0767 2.24941 18.9935 2.25 16.875C2.25 16.5766 2.13147 16.2905 1.9205 16.0795C1.70952 15.8685 1.42337 15.75 1.125 15.75C0.826631 15.75 0.540483 15.8685 0.329505 16.0795C0.118526 16.2905 0 16.5766 0 16.875C0 20.7538 1.54084 24.4737 4.28356 27.2164C7.02628 29.9592 10.7462 31.5 14.625 31.5C18.5038 31.5 22.2237 29.9592 24.9664 27.2164C27.7092 24.4737 29.25 20.7538 29.25 16.875C29.2504 15.2064 28.8796 13.5585 28.1645 12.0509C27.4494 10.5432 26.4078 9.21355 25.1153 8.15818C23.8228 7.1028 22.3117 6.34817 20.6915 5.94895C19.0713 5.54974 17.3826 5.51594 15.7478 5.85ZM22.5 16.875C22.5 18.0685 22.0259 19.2131 21.182 20.057C20.3381 20.9009 19.1935 21.375 18 21.375C16.8065 21.375 15.6619 20.9009 14.818 20.057C13.9741 19.2131 13.5 18.0685 13.5 16.875C13.5 15.6815 13.9741 14.5369 14.818 13.693C15.6619 12.8491 16.8065 12.375 18 12.375C19.1935 12.375 20.3381 12.8491 21.182 13.693C22.0259 14.5369 22.5 15.6815 22.5 16.875Z" fill="white"/>
    </g>
    <defs>
        <clipPath id="clip0_1030_2086">
        <rect width="36" height="36" fill="white"/>
        </clipPath>
    </defs>
</svg>
