<svg width="48" height="48" viewBox="0 0 48 48" fill="none" xmlns="http://www.w3.org/2000/svg">
    <path fill-rule="evenodd" clip-rule="evenodd" d="M7.5 36C7.5 35.6022 7.65804 35.2206 7.93934 34.9393C8.22064 34.658 8.60218 34.5 9 34.5H39C39.3978 34.5 39.7794 34.658 40.0607 34.9393C40.342 35.2206 40.5 35.6022 40.5 36C40.5 36.3978 40.342 36.7794 40.0607 37.0607C39.7794 37.342 39.3978 37.5 39 37.5H9C8.60218 37.5 8.22064 37.342 7.93934 37.0607C7.65804 36.7794 7.5 36.3978 7.5 36ZM7.5 24C7.5 23.6022 7.65804 23.2206 7.93934 22.9393C8.22064 22.658 8.60218 22.5 9 22.5H39C39.3978 22.5 39.7794 22.658 40.0607 22.9393C40.342 23.2206 40.5 23.6022 40.5 24C40.5 24.3978 40.342 24.7794 40.0607 25.0607C39.7794 25.342 39.3978 25.5 39 25.5H9C8.60218 25.5 8.22064 25.342 7.93934 25.0607C7.65804 24.7794 7.5 24.3978 7.5 24ZM7.5 12C7.5 11.6022 7.65804 11.2206 7.93934 10.9393C8.22064 10.658 8.60218 10.5 9 10.5H39C39.3978 10.5 39.7794 10.658 40.0607 10.9393C40.342 11.2206 40.5 11.6022 40.5 12C40.5 12.3978 40.342 12.7794 40.0607 13.0607C39.7794 13.342 39.3978 13.5 39 13.5H9C8.60218 13.5 8.22064 13.342 7.93934 13.0607C7.65804 12.7794 7.5 12.3978 7.5 12Z" fill="#767676"/>
</svg>
